<?xml version="1.0" encoding="UTF-8"?>
<svg xmlns="http://www.w3.org/2000/svg" version="1.1" viewBox="0 0 600 600">
  <defs>
    <style>
      .cls-1 {
        fill: #b41527;
      }
    </style>
  </defs>
  <!-- Generator: Adobe Illustrator 28.7.2, SVG Export Plug-In . SVG Version: 1.2.0 Build 154)  -->
  <g>
    <g id="Layer_1">
      <g>
        <path class="cls-1" d="M144.2,398.4c15.9,23.9,31.7,47.6,47.7,71.6,2.5-1.7,4.9-3.3,7.3-4.8,9.2-5.9,19-7.6,29.7-4.5,39.9,11.5,79.8,22.9,119.7,34.3,5.6,1.6,10.6,0,15.3-3,23-15.3,45.9-30.7,68.9-46,28.8-19.2,57.6-38.4,86.4-57.6,8.6-5.8,11.2-16,6.3-24.3-5.4-9.1-16.8-11.6-25.9-5.6-20.9,13.9-41.8,27.9-62.7,41.8-2.6,1.7-5.2,3.5-7.8,5.2-4.2,2.6-9.4,1.5-12-2.4-2.8-4.1-1.8-9.3,2.4-12.2,23.8-16,47.6-32.1,71.6-47.7,16.4-10.7,37.8-5.7,48.7,10.7,10.5,15.9,6.1,37.7-10.1,48.6-30,20.2-60.1,40.1-90.1,60.2-21.8,14.5-43.6,29-65.4,43.6-9.9,6.6-20.3,8.6-32,5.2-38.6-11.2-77.3-22.1-115.9-33.3-7.2-2.1-13.3-1.4-19.2,3-1.6,1.2-3.4,2.3-5.2,3.6,1.6,2.5,3.2,4.8,4.7,7.2,3.2,5,2.4,9.8-2.6,13.2-19.3,12.9-38.5,25.8-57.9,38.6-4.6,3-9.5,1.9-12.7-2.7-2.2-3.2-4.4-6.4-6.5-9.7-2.9-4.5-1.9-9.8,2.2-12.6,4.2-2.7,9.3-1.6,12.4,2.8.6.8,1.1,1.6,1.9,2.7,14.7-9.8,29.2-19.5,44.1-29.4-22.6-34-45.2-67.7-67.8-101.8-14.8,9.9-29.3,19.5-44.1,29.4,4.4,6.6,8.6,13,12.9,19.5,9.9,14.8,19.8,29.6,29.6,44.4,3.2,4.8,2.4,10-1.9,12.8-4.3,2.9-9.5,1.7-12.6-3-15.6-23.4-31.3-46.8-46.9-70.2-3.6-5.5-2.7-10.2,2.7-13.9,19-12.7,38-25.4,57.1-38.1,4.9-3.3,9.9-2.3,13.2,2.5,1.5,2.2,3,4.5,4.6,6.9,1-.6,1.9-1.1,2.8-1.7,17.9-12,35.8-24,53.7-36.1,12.7-8.5,26.6-12,41.5-9.1,7.4,1.4,14.5,4.2,21.6,6.5,37.6,12,75.1,24.1,112.7,36.1,14.6,4.6,24,14,26.4,29.2,3.9,25.1-19,45.4-43.8,39-21.8-5.6-43.6-11.5-65.3-17.3-5.7-1.5-8.5-6-7.1-11.1,1.3-4.8,6.1-7.3,11.6-5.8,21.6,5.7,43.1,11.5,64.7,17.1,11.3,3,21.9-4.1,22.8-15.2.7-8.3-4.3-15.8-12.7-18.5-20.7-6.7-41.5-13.3-62.2-20-22.4-7.2-44.8-14.3-67.1-21.6-11.3-3.7-21.9-2.3-31.6,4-19.2,12.6-38.2,25.5-57.3,38.3-.3.2-.5.4-1,.8Z"/>
        <path class="cls-1" d="M476.8,160.7h-26.1c0,1.7,0,3.2,0,4.6,0,60.1,0,120.2,0,180.3,0,.9,0,1.7,0,2.6-.4,5-4.2,8.6-8.9,8.4-4.8-.2-8.3-3.8-8.4-8.9,0-9.4,0-18.8,0-28.2,0-55.1,0-110.3,0-165.4,0-8.2,2.8-11.1,11.1-11.1,13.3,0,26.5,0,39.8,0,6.5,0,9.8,3.1,10,9.6.1,5.4,0,10.8,0,16.2,0,47,0,94.1,0,141.1,0,1.2,0,2.4,0,3.6-.4,5.1-4,8.5-8.9,8.4-4.8-.1-8.4-3.7-8.4-8.8,0-9.8,0-19.6,0-29.4,0-39.6,0-79.2,0-118.8,0-1.3,0-2.6,0-4.2Z"/>
        <path class="cls-1" d="M446.7,78.1c-5.3,1.3-10.6,2.6-16,3.9-3.7.9-6.9,0-9.3-3.1-2.3-2.9-2.7-6.4-.6-9.4,1.3-1.9,3.7-3.8,6-4.4,14-3.6,28-6.9,42.1-10.1,6.1-1.4,11,2.6,10.9,8.9-.3,14.2-.7,28.5-1.2,42.7-.2,5.9-3.7,9.5-8.9,9.4-5.3-.1-8.5-3.9-8.5-10.1,0-5.5,0-10.9,0-16.9-4.1,5-8.1,9.9-12.1,14.8-17.3,21.1-34.5,42.3-51.8,63.4-3.5,4.3-6.6,5-12,3-22.1-8-44.2-16-66.2-24.1-2.4-.9-3.9-.5-5.8.9-22.2,16.7-44.5,33.4-66.8,50-.6.5-1.2.9-1.8,1.3-4.3,3-9.5,2.3-12.4-1.6-2.9-3.9-2.1-9.2,2-12.3,10.2-7.8,20.5-15.4,30.8-23.1,14.2-10.6,28.4-21.1,42.4-31.8,3.8-2.9,7.5-3.5,12-1.8,20.9,7.7,41.9,15.3,62.8,23,3.4,1.2,5.3,1,7.7-2,18-22.3,36.2-44.5,54.3-66.7.9-1.1,1.7-2.2,2.5-3.3-.1-.2-.2-.5-.4-.7Z"/>
        <path class="cls-1" d="M326.7,225.5h-26.7c0,2.6,0,5.2,0,7.7,0,31,0,61.9,0,92.9,0,5.9-3,9.6-8,9.9-5,.4-9-3.1-9.4-8.2,0-1,0-1.9,0-2.9,0-35.5,0-71,0-106.5,0-7.3,3.2-10.5,10.4-10.5,13.7,0,27.4,0,41.1,0,6.6,0,9.9,3.4,9.9,10,0,41.6,0,83.3,0,124.9,0,5.3-2.4,8.8-6.7,9.8-5.7,1.3-10.6-2.8-10.7-9,0-10.8,0-21.6,0-32.4,0-27.3,0-54.6,0-81.9,0-1.3,0-2.5,0-4Z"/>
        <path class="cls-1" d="M401.8,252.8h-26.5c0,1.4,0,2.7,0,3.9,0,31.3,0,62.6,0,93.9,0,5.9-3.7,9.9-8.9,9.7-4.1-.1-7.4-2.9-8.2-7-.2-1.2-.2-2.4-.2-3.5,0-34.5,0-69,0-103.6,0-7.8,3-10.8,10.7-10.8,13.6,0,27.2,0,40.8,0,6.3,0,9.6,3.3,9.6,9.6,0,38.4,0,76.8,0,115.2,0,5.8-3.4,9.6-8.6,9.7-5.2,0-8.7-3.9-8.7-9.9,0-34.4,0-68.8,0-103.2,0-1.3,0-2.5,0-4Z"/>
        <path class="cls-1" d="M251.6,281.8h-26.7c0,1.3-.2,2.4-.2,3.5,0,7.3,0,14.7,0,22,0,5.8-3.6,9.7-8.6,9.7-5,0-8.7-3.9-8.7-9.6,0-11.2,0-22.4,0-33.6,0-6.2,3.5-9.5,9.8-9.5,13.6,0,27.2,0,40.8,0,8.2,0,11.1,3,11.1,11.1,0,14.4,0,28.9,0,43.3,0,3.6-1,6.6-4.1,8.6-2.8,1.7-5.7,1.9-8.6.3-3.3-1.7-4.7-4.6-4.7-8.2,0-11.3,0-22.6,0-34,0-1.2,0-2.3,0-3.8Z"/>
      </g>
    </g>
  </g>
</svg>