<?xml version="1.0" encoding="UTF-8"?>
<svg xmlns="http://www.w3.org/2000/svg" version="1.1" viewBox="0 0 600 600">
  <defs>
    <style>
      .cls-1 {
        fill: #b41527;
      }
    </style>
  </defs>
  <!-- Generator: Adobe Illustrator 28.7.2, SVG Export Plug-In . SVG Version: 1.2.0 Build 154)  -->
  <g>
    <g id="Layer_1">
      <g>
        <path class="cls-1" d="M254.2,186.3c-2.3-13.4-.9-14.3,12.1-13,11.1,1.2,22.3.6,33.4,1.6,18,1.6,35.2,5.2,45.5,22.7.8,1.4,3,2.3,4.7,3,14.3,6,20.3,17.6,20.9,32.3.6,16.5-5.2,31.5-11.2,46.5-1.9,4.6-3.4,9.9-3.2,14.8,1.2,25.3-5.6,46.6-26.6,62.6-2,1.5-.8,8.2.2,12.2.5,1.8,4.1,3.8,6.4,3.9,15.8.6,31.7-.5,47.3,1.2,43.4,4.7,75.4,40.5,75.9,84.2.3,24.5,0,49,0,73.5,0,12.7-.9,13.5-13.4,13.5-91.5,0-183.1,0-274.6,0-10.9,0-21.8-.2-32.7,0-7.7.2-10.7-3.1-10.6-10.8.3-25.3-.1-50.7.2-76,.6-47.1,37.3-84.3,84.5-85.5,12.5-.3,25.1.2,37.6-.3,2.7-.1,6.8-2.2,7.7-4.4,1.6-4.2,5.2-8.8-1.2-13.5-17.4-12.8-25.7-30.7-25.1-52.3.3-11.3-2-21.6-5.8-32.4-4.2-11.8-7-24.9-6.7-37.3.5-22.7,14.3-37.4,34.8-46.8ZM398.7,531c.1-2.8.3-4.7.3-6.6,0-17.4,0-34.9,0-52.3,0-5,.8-9.9,7.1-9.8,6.3,0,6.9,5,6.9,10,0,7.1,0,14.2,0,21.2,0,12.4,0,24.8,0,37.3h32.8c0-26.2,1.1-51.8-.3-77.3-1.8-34.3-30.5-63-63.8-66.2-5.3-.5-8.5.5-10.6,6-3.4,8.9-7.6,17.5-11.5,26.2-6.1,13.8-6.1,13.7-19.7,7.9-2.5-1-6.1-1.9-8.1-.9-11.4,5.7-13.8,10.6-12.2,23.1.3,2.2.4,4.3.6,6.5,2.7,24.9,5.4,49.7,8.2,75h70.3ZM259.6,531.1c3.2-29,6.3-57.4,9.5-85.8.1-1.4.5-2.7.3-4.1-.2-1.8-.2-3.9-1.2-5.3-6.3-9-14.4-11.2-24.6-6.6-6.3,2.8-10.3,1.5-13-4.9-4-9.5-9.1-18.7-12.3-28.5-2.9-8.9-8.2-9.8-16.1-8.3-34.7,6.5-59.7,36-60,71.5-.2,20.7,0,41.4,0,62.1,0,3.2,0,6.3,0,9.4h32.7c.1-2.3.3-3.9.3-5.5,0-18,0-36,0-53.9,0-4.8,1.2-9.1,7-9.1,5.7,0,6.9,4.3,6.9,9.1,0,5.4,0,10.9,0,16.3,0,14.3,0,28.7,0,43.3h70.6ZM341.9,286.8c.4,0,.8,0,1.2,0-.6-10.6-.6-21.3-2-31.7-2.7-20.5-13.1-27.5-33.1-21.7-9.5,2.7-17.9,3.2-27.5.2-20.3-6.3-31.5.8-33.4,21.8-1.7,18.4-2,37-.7,55.4,1.7,24.7,22.8,42.8,47.4,43,24.5.2,45.3-17.9,48-42.4.9-8.1.1-16.3.1-24.5ZM234.2,245.7c.6-1.3,1.1-2.2,1.5-3.2,8.3-20.8,21.1-28.6,42.8-23.5,11,2.6,20.9,2.1,31.7-.2,21.5-4.6,35.2,3.8,42.4,24.3.5,1.5,1.4,2.8,2.9,5.8.6-4.4,1-6.8,1.2-9.2,1.6-15.7-2.4-22-17.2-27.7-2.1-.8-4.4-2.7-5.2-4.6-3.9-10.1-12-14.8-21.8-16.3-11.8-1.8-23.7-2.3-35.6-3.2-1.4-.1-4.1.6-4.2,1.3-1.3,8.3-8.8,8-14.1,10.4-19.9,8.8-29.8,27.1-24.4,46.3ZM283.2,441.6c-3.2,30.1-6.4,59.5-9.6,89.3h40.9c-3.3-30.1-6.4-59.5-9.7-89.3h-21.6ZM241.5,415.2c12.9-5.9,24.5-11.2,36.3-16.6-14-15.2-30.9-11.5-48.7-11.1,4.4,9.9,8.2,18.4,12.4,27.8ZM310.1,398.6c12.2,5.5,24.1,10.9,36.5,16.5,4.2-9.6,8-18.1,12.3-27.8-17.9-.1-35.1-3.8-48.8,11.3ZM313.8,366.3h-40c-4.4,7.5-1.5,11.3,5.2,16.2,10.6,7.6,19.1,7.9,29.5,0,9.1-6.9,9.7-6.1,5.2-16.1ZM269.8,418.6c12.7,13,39.6,12.4,47.8-.3-15.7-13.4-31.7-12.8-47.8.3Z"/>
        <path class="cls-1" d="M432.7,260.4c-7.6,0-15.3,0-22.9,0-5.7,0-8.5-2.6-8.7-8.3-.2-5.2-.4-10.3-.9-15.5-1.2-11.9-5.1-22.6-13.7-31.5-19.8-20.3-23.4-48.8-9.8-73.4,13.4-24.5,41.2-37.6,68.4-32.3,38.5,7.5,62,46.7,49.7,83.9-2.1,6.5-6.1,13.1-11.1,17.7-13.3,12.3-17.8,27.5-18.2,44.7-.4,14.7-.5,14.7-15.6,14.7-5.7,0-11.4,0-17.2,0ZM450.5,246.5c.5-1.1.9-1.5.9-2,.3-1.9.6-3.8.7-5.7,1.2-16.5,5-32.5,18.2-43.1,20.1-16.2,16.2-53.1-2.3-70-20.2-18.5-51.2-18.1-70.9,1-17.2,16.6-21.8,53-.9,69.4,9.7,7.6,14.1,19.1,16.3,31.2,1.1,6.3,1.8,12.7,2.7,19.2h35.1Z"/>
        <path class="cls-1" d="M432.2,289.1c-6.5,0-13.2.7-19.5-.3-3.2-.5-5.9-4.1-8.8-6.3,2.7-2.4,5.3-6.8,8.1-6.9,14.1-.7,28.3-.7,42.3,0,2.7.1,5.3,4.1,7.9,6.3-2.7,2.4-5.1,6.5-8.1,6.9-7.2,1-14.6.3-22,.3Z"/>
        <path class="cls-1" d="M433.2,317.4c-4.9,0-10,.8-14.6-.3-2.8-.7-4.9-4.3-7.3-6.7,2.3-2.2,4.5-6,6.9-6.2,10-.7,20.1-.7,30,0,2.5.2,4.7,4.1,7,6.2-2.5,2.3-4.6,5.9-7.5,6.6-4.6,1.1-9.7.3-14.6.3Z"/>
        <path class="cls-1" d="M390.6,91.2c-2.1,2.8-3.3,5.7-5.3,6.5-2,.8-6.2.2-7.2-1.3-5.4-8.1-10.3-16.5-14.7-25.2-.8-1.6.6-5.6,2.3-6.9,1.6-1.3,6.4-1.6,7.1-.5,6.2,8.8,11.7,17.9,17.8,27.5Z"/>
        <path class="cls-1" d="M504.2,68.9c-1.6,3.1-2.6,5.5-4,7.9-3.5,6.1-6.6,12.5-10.8,18.1-1.6,2.1-6.7,3.5-8.7,2.5-2-1-3.7-6.4-2.7-8.6,3.8-8.1,8.4-15.8,13.4-23.1,1.2-1.8,5.3-2.7,7.6-2.2,2,.4,3.4,3.5,5.2,5.5Z"/>
        <path class="cls-1" d="M352.5,127.9c-.3,6.1-5.3,9.2-10.1,6.7-7.7-4-15.3-8.2-22.4-13.1-2-1.4-3.1-6.3-2.2-8.8.5-1.7,6-3.6,7.9-2.7,8.3,3.9,16.2,8.8,24,13.6,1.6,1,2.3,3.4,2.8,4.4Z"/>
        <path class="cls-1" d="M549.9,117.2c-1,1.2-2.3,3.7-4.4,5-6.6,4.2-13.5,7.9-20.3,11.9-4.1,2.4-8.6,2.4-10.1-2.3-.8-2.5,1-7.6,3.3-9.2,6.5-4.8,13.7-8.6,21-12.3,5.4-2.8,10.6.3,10.6,6.9Z"/>
        <path class="cls-1" d="M439.7,65.2c0,4.6.7,9.4-.3,13.7-.6,2.4-4.1,5.6-6.3,5.6-2.2,0-6.2-3.3-6.4-5.5-.7-9.1-.7-18.4,0-27.5.2-2.1,4.4-5.8,6.2-5.5,2.6.5,5.8,3.6,6.5,6.2,1.1,4,.3,8.6.3,12.9,0,0,0,0,0,0Z"/>
        <path class="cls-1" d="M168.6,348.5l-49.4-35.9-49.4,35.9,18.9-58.1-49.4-35.9h61.1l18.9-58.1,18.9,58.1h61.1l-49.4,35.9,18.9,58.1ZM119.2,300.5l30.7,22.3-11.7-36.1,30.7-22.3h-37.9l-11.7-36.1-11.7,36.1h-37.9l30.7,22.3-11.7,36.1,30.7-22.3Z"/>
      </g>
    </g>
  </g>
</svg>