<?xml version="1.0" encoding="UTF-8"?>
<svg xmlns="http://www.w3.org/2000/svg" version="1.1" viewBox="0 0 600 600">
  <defs>
    <style>
      .cls-1 {
        fill: #b41527;
      }
    </style>
  </defs>
  <!-- Generator: Adobe Illustrator 28.7.2, SVG Export Plug-In . SVG Version: 1.2.0 Build 154)  -->
  <g>
    <g id="Layer_1">
      <g>
        <path class="cls-1" d="M301.5,371.5l-2.6-1.1c-2.7-1.2-66.3-29.2-86.8-79.6l-.5-1.3v-54c.4-2.1,9-52.4,39.7-95.7l4.6-6.4,6,5.2c.2.2,25.4,21,76.2,19.6h2c0,0,1.8,1,1.8,1,4.6,2.7,45.4,26.9,45.4,53.8s0,6.6,0,10.5c0,52.3,0,65.4-1.4,70h0c0,0,0,.1,0,.3,0,.2-.1.3-.2.5-2.5,6.8-21.8,54.7-81.3,76.6l-2.7,1ZM225.8,286.5c16.6,38.9,64.5,63.8,76.1,69.4,52.7-20.6,69.1-64.4,70.1-67.2.7-6.2.7-46.1.7-65.5,0-3.9,0-7.4,0-10.5,0-13.6-21.7-31.4-36.5-40.4-40.6.7-66.2-11.6-77.3-18.5-24,36.9-32.1,78.1-33,83.3v49.4Z"/>
        <g>
          <rect class="cls-1" x="352.6" y="324.5" width="14.4" height="60.1"/>
          <rect class="cls-1" x="233" y="322.3" width="14.4" height="60.1"/>
          <path class="cls-1" d="M525.5,519.1H74.5v-38.9l.3-1.1c.3-1.1,8.8-27.6,29.9-56.5,28.1-38.5,65.5-62.6,108.1-69.7l3.3-.6,84,71.5,79-70.3,3.3.4c.9.1,22,3.1,47.9,15.4,34.5,16.3,61.1,41.6,77.1,73,.7,1.4,18,35.8,18,62.8v13.9ZM88.9,504.7h422.2c-.2-23.5-16.3-55.4-16.5-55.7-31-61.1-95.9-77.2-111-80.1l-83.3,74.2-88.4-75.3c-37.8,7.2-69.9,28.4-95.4,63.1-17.6,24-26,46.7-27.7,51.7v22.2Z"/>
          <path class="cls-1" d="M432.3,374.5h-14.4v-161.9c0-64.7-52.7-117.4-117.4-117.4s-117.4,52.7-117.4,117.4v161.9h-14.4v-161.9c0-72.7,59.1-131.8,131.8-131.8s131.8,59.1,131.8,131.8v161.9Z"/>
        </g>
      </g>
    </g>
  </g>
</svg>