<?xml version="1.0" encoding="UTF-8"?>
<svg xmlns="http://www.w3.org/2000/svg" version="1.1" viewBox="0 0 600 600">
  <!-- Generator: Adobe Illustrator 28.7.2, SVG Export Plug-In . SVG Version: 1.2.0 Build 154)  -->
  <g>
    <g id="Layer_1">
      <path d="M492.4,432.9c-14.6-28.7-38.7-51.8-69.9-67v-146.7c0-67.6-55-122.5-122.5-122.5s-122.5,55-122.5,122.5v143.8c-22.7,11.3-42.9,28.7-59.5,51.5-19.6,26.8-27.5,51.5-27.8,52.5l-.3,1v36.1h419.4v-12.9c0-25.1-16.1-57-16.8-58.4ZM190.9,219.2c0-60.2,49-109.2,109.2-109.2s109.2,49,109.2,109.2v140.8c-18.6-7.3-32.3-9.2-33-9.3l-3-.4-11.3,10.1v-36.2c11.2-14.1,16-26.3,17.2-29.4,0-.1.1-.3.2-.5,0-.1,0-.2,0-.2h0c1.2-4.2,1.3-16.5,1.3-65.1,0-3.6,0-6.9,0-9.7,0-25-37.9-47.6-42.2-50l-1.6-.9h-1.9c-47.2,1.3-70.7-18-70.9-18.2l-5.6-4.8-4.2,6c-28.6,40.3-36.5,87-36.8,89v.5c0,0,0,49.7,0,49.7l.5,1.2c4.6,11.4,11.6,21.5,19.5,30.3v40.4l-15.7-13.3-3.1.5c-9.5,1.6-18.7,4.1-27.6,7.5v-138ZM299.7,415.7l-49.1-41.8v-38.7c22.3,19.4,46.3,29.9,47.8,30.6l2.4,1.1,2.5-.9c19.2-7.1,33.9-17,45-27.3v33.7l-48.8,43.4ZM301.3,352.5c-10.8-5.2-55.3-28.4-70.8-64.5v-45.9c.9-4.8,8.4-43.2,30.7-77.5,10.4,6.5,34.2,17.8,71.9,17.2,13.7,8.3,33.9,24.9,33.9,37.5s0,6.1,0,9.8c0,18.1,0,55.2-.6,60.9-.9,2.6-16.2,43.3-65.1,62.5ZM103.2,490.8v-20.7c1.6-4.6,9.4-25.8,25.8-48,23.7-32.2,53.5-52,88.7-58.7l82.2,70,61.1-54.4h.9v-.8l15.5-13.8c14,2.7,74.4,17.7,103.2,74.5.2.3,15.1,29.9,15.3,51.8H103.2Z"/>
    </g>
  </g>
</svg>