<?xml version="1.0" encoding="UTF-8"?>
<svg xmlns="http://www.w3.org/2000/svg" version="1.1" viewBox="0 0 600 600">
  <!-- Generator: Adobe Illustrator 28.7.2, SVG Export Plug-In . SVG Version: 1.2.0 Build 154)  -->
  <g>
    <g id="Layer_1">
      <path d="M152.2,308.7c1.3,0,6.2,0,7,0,20.4,0,40.7,0,61.1.4,4.6,0,8-.9,10.5-4.8,1.1-1.7,2.7-3.1,4.2-4.8-3.7-2.3-7.4-4.3-10.9-6.6-29.8-19.7-49.6-46.8-58.9-81.3-17.7-65.8,15.1-134.8,77.2-162.9,24-10.8,49.1-14.5,75.2-11.3,2.4.3,4.8,1.2,7.2,1.7,1.9.4,4,.3,5.9.6,2.6.5,5.2,1.2,7.8,1.9,35.8,10.8,63.3,32.2,82.3,64.3,10.7,18.1,16.7,37.8,18.3,58.7.3,3.8-.3,7.7,0,11.5.7,9.7-.6,19.1-2.6,28.5-6.5,29.7-21,54.8-43.6,75.2-.4.4-.8.8-1.7,1.6,6.1.3,11.5-.2,17.1-1.5-.6-2.2-1.1-4.2-1.6-6.2-1.6-5.6-.2-8.2,5.5-9.7,16.8-4.5,33.5-9,50.3-13.5,4.5-1.2,7.3.3,8.5,4.8,3.7,13.5,7.2,26.9,10.9,40.4,4.3,15.9,8.5,31.7,12.7,47.6,6.6,24.6,13.2,49.2,19.7,73.8,1.1,4.2-.5,7.1-4.6,8.2-17.2,4.7-34.5,9.3-51.8,13.9-4,1.1-6.9-.7-8-4.6-.7-2.4-1.3-4.7-2.1-7.4-3.6,2.1-7,3.8-10.2,6-8.7,5.9-17.3,12-26,17.9-1.2.8-1.5,1.7-1.3,3.1.8,7.4.9,14.8-1.5,22-2.9,8.5-9.9,13.9-18.9,14.5-4.5.3-8.9-.3-13.2-1.6-.5-.1-1-.2-1.7-.4-.5,6.8-1.6,13.3-7.1,18-5.4,4.6-11.9,5-18.7,4,0,.8,0,1.4,0,2.1-.3,3.6,0,7.3-1,10.7-2,7.6-8.4,12.6-16.6,13.1-4.6.2-9.2-.2-14.2-.4-.2.8-.5,2-.9,3.3-4.6,14.8-18.5,22.2-33.3,17.6-3.6-1.1-7.1-3-10.4-4.9-1.8-1-2.6-.9-3.9.5-1.6,1.8-3.3,3.5-5.1,5.1-7,6.2-15.1,7.8-23.8,4.3-8.7-3.5-13.4-10.4-14-19.8-.1-1.6-.6-1.9-2.1-2-11.8-.6-20.9-9.7-21.4-21.5,0-1.3-.4-1.8-1.8-1.9-2.8-.2-5.7-.1-7.9-2.3-.5-.5-.9-1-1.4-1.6-.2.3-.4.7-.7,1.3-7.6-4.7-11.6-11.4-11.8-20.5-9.9-.4-17.4-4.5-21.4-13.7-3.9-9.2-2-17.5,4.7-25.2-3.2-2.8-6.4-5.7-9.9-8.8,0,.9-.1,1.5-.2,2.1,0,2.8,0,5.5,0,8.3,0,5.3-2.1,7.4-7.3,7.4-13.4,0-26.9,0-40.3,0-4.1,0-8.1,0-12.2,0-4.7,0-6.9-2.2-6.9-6.8,0-55.8,0-111.6,0-167.4,0-4.5,2.3-6.8,6.7-6.8,17.7,0,35.4,0,53.1,0,4.6,0,6.9,2.3,6.9,6.9,0,5.4,0,10.9,0,16.3v2.9ZM307.2,514.3c2.7,2.7,5.3,5.2,7.9,7.8.3.3.7.4,1,.6,4.5,1.4,9.1,2.4,13.9,2,4.6-.4,7-2.6,7.1-7.3,0-3.6-.7-7.3-1.3-10.9-.2-1-.9-2.1-1.6-2.8-17.7-17.8-35.5-35.6-53.3-53.4-4.9-4.9-9.8-9.8-14.7-14.7-1.8-1.8-2.4-3.9-1.5-6.3.8-2.3,2.4-3.6,4.7-4,2.4-.4,4.3.7,5.9,2.4,22,22.1,44.1,44,66.1,66.2,4.2,4.2,9.1,5.2,14.5,5.1,3.6,0,5.6-1.6,6.2-5.1.6-3,.5-6.2.7-9.4,0-1.6-.6-2.8-1.7-4-19-19-38-38-57-57-3.4-3.4-6.7-6.7-10.1-10.1-3.7-3.7-2.6-9.2,2.1-10.5,2.6-.7,4.7.2,6.6,2.1,21.1,21.1,42.2,42.2,63.4,63.3,2.2,2.2,4.3,4.9,6.9,6.2,3.9,1.9,8.3,3.2,12.7,3.9,7.3,1.3,11.7-2.1,12.6-9.4.5-3.9.2-7.8.4-11.7.3-4.7-2.8-7.7-5.4-10.8-2.1-2.6-4.7-4.7-7-7.2-29.8-32.9-59.6-65.9-89.3-98.8-1.1-1.2-1.9-1.3-3.3-.6-7.7,3.8-14.4,8.8-20.4,14.8-6.8,6.8-14.6,11.9-23.9,14.6-10.8,3.2-21.4,3.4-31.8-1.6-13.1-6.3-17.8-19.7-11.8-32.9,2.1-4.7,5.4-8.5,8.7-12.3.4-.5.8-1,1.5-1.9h-63.7v2.4c0,26.1,0,52.1,0,78.2,0,5.7,0,11.4,0,17.1,0,1.5-.4,3.1-.5,4.6,0,1.4.2,2.8.5,4.2.2,1.1.5,2.4,1.1,3.3.9,1.2,2.2,2,3.4,3,4.1,3.6,8.1,7.2,12.2,10.8.6.5,1.3,1,2.3,1.9.6-.8,1.1-1.6,1.8-2.3,10.3-10.3,20.6-20.7,31-31,7-6.9,15.4-8.8,24.6-5.1,8.7,3.4,13.4,10.2,14,19.6.1,1.7.7,2.1,2.3,2.2,11.4.6,20.7,9.8,21.1,20.9,0,1.8.6,2.4,2.4,2.5,9.9.6,17.9,7.1,20.4,16.8.5,2.1.7,4.2,1,6.3,20.2.3,30,22.7,17.4,37.9ZM344.9,376.8c.7.5,1.5.9,2.1,1.5,10.4,11.4,20.7,22.9,31.1,34.4,8.3,9.2,16.7,18.4,25,27.7.8.9,1.6,1.1,2.5.6,1-.6,1.7-1.6,2.6-2.3,2-1.5,4-3,6.1-4.4.9-.6,2.1-.7,3-1.3,2.9-2.1,5.6-4.6,8.7-6.5,5.6-3.6,11.5-6.8,17.2-10.2.6-.3,1.3-1.3,1.2-1.8-.9-4.4-1.8-8.8-2.9-13.1-.4-1.4-1.2-2.7-1.6-4.2-4.7-17.4-9.3-34.8-14-52.2-4.6-17.1-9.1-34.1-13.7-51.2-.4-1.6-.9-2.1-2.7-1.8-3.5.7-7.1,1.2-10.7,1.5-10.1.7-19.7-.9-28.6-5.9-4.8-2.7-9.8-5.3-14.9-7.5-14.5-6.1-29.5-9.8-45.4-10-21-.3-38.8,6.8-52.9,22.7-11.9,13.5-23.9,27-35.7,40.5-1.7,2-3.3,4.1-4.4,6.4-3.6,7-1.7,13.1,5.1,17,5.8,3.2,12,3.8,18.5,2.7,9.8-1.6,17.7-6.6,24.6-13.4,8.2-8.2,17.5-14.7,28.4-18.9,4.4-1.7,6.2-1.3,9.4,2.2,13.7,15.2,27.5,30.4,41.2,45.6.5.5.7,1.3,1,2ZM140,294.8h-42.5v156.8c.8,0,1.5,0,2.2,0,8,0,16,0,24,0,1.4,0,2.8.5,4.2.5,3.3,0,6.5-.3,9.8-.5.7,0,1.4,0,2.4,0,0-3.7,0-7.2,0-10.7,0-.8.2-1.7.2-2.5,0-1.3.2-2.8-.2-4-.7-1.8-.9-3.4-.3-5.1.2-.7.3-1.5.3-2.3,0-43.4,0-86.7,0-130.1,0-.7,0-1.4-.1-2.2ZM460.1,426.2c13.9-3.7,27.5-7.4,41.2-11.1-13.6-50.7-27.1-101.1-40.6-151.5-.5,0-.7,0-.9,0-12.6,3.4-25.3,6.8-37.9,10.2-2.5.7-2.5.7-1.8,3.3,4.8,17.9,9.7,35.9,14.5,53.9,6.6,24.5,13.1,49.1,19.7,73.6,1,3.6,1.9,7.2,2.9,10.8,1,3.5,1.9,7,2.9,10.7ZM225.7,126c4-19.2,10.6-38,21.2-54.5,3.8-5.9,8.1-11.4,12.8-16.5-22.1,6.6-49.4,24.2-67.2,52.3-10.6,16.6-17,34.7-19.2,54.5,4.2-1.3,7.9-2.6,11.8-3.7,11.5-3.1,23.2-4.9,34.9-6.3,1.3-.2,1.7-.6,1.9-1.9.9-8,2.1-16,3.8-23.9ZM426.8,161.9c-3.3-27.8-14.1-51.7-32.7-72.1-14.7-16.2-32.5-27.8-53.1-34.8,4.1,5.7,8.6,11.1,12.3,17,14.8,23.6,21.7,49.9,24.7,77.3.2,1.6.5,2.4,2.3,2.6,13,1.6,25.9,3.6,38.5,7.4,2.5.7,4.9,1.7,7.9,2.7ZM173.5,189.8c0,.6,0,1,0,1.4,1.5,7.4,2.5,14.9,4.8,22,10.7,33.9,31.9,59.2,63.3,75.9,1.3.7,2.1.7,3-.5,1.1-1.4,2.2-2.7,3.5-4,1-.9.8-1.7.1-2.7-8.9-13.4-14.9-28.2-19.3-43.6-3.2-11.2-5.4-22.5-6.7-34.1-.5-4.5-.5-4.4-5.2-5-11.2-1.4-22.4-3.3-33.3-6.3-3.4-1-6.7-2.1-10.2-3.2ZM359.8,268.6c.2.1.3.2.5.3,5.2,2.6,10.3,5.3,15.6,7.8.6.3,1.7,0,2.2-.4,25.2-19.9,40.9-45.6,47.2-77.2.4-2.2.9-4.4,1.3-6.5.2-.9.2-1.9.3-2.8-.2-.1-.5-.3-.7-.4-1.3.5-2.6,1.2-4,1.6-2.9.9-5.8,1.8-8.7,2.6-1.5.4-3.2.4-4.7.7-1.6.4-3,1.2-4.6,1.4-8.1,1.4-16.1,2.6-24.2,3.9-1.3.2-1.8.7-1.9,2-.1,2.2-.4,4.3-.7,6.4-2,15-5.3,29.8-10.7,44-2.1,5.6-4.5,11-6.9,16.6ZM315.4,51.3c-.1.2-.3.4-.4.6,0,.2,0,.4,0,.6,4.7,13.4,7.1,27.3,8.6,41.2,1.8,17.3,2.8,34.6,4.1,51.9.1,1.6.4,2.3,2.3,2.4,9.7.5,19.5,1.1,29.2,1.7,2.2.1,4.4.3,6.7.4,0-.6,0-1,0-1.3-1.7-9.4-3.1-18.9-5.2-28.1-2.8-12.3-7.4-24.2-13.4-35.3-5.8-10.8-12.8-20.7-22.8-28.2-2.9-2.2-6.1-3.9-9.2-5.9ZM238.7,122.3c-1.9,9.3-3.9,18.4-4.6,27.8.6,0,1,0,1.3,0,11.4-.7,22.9-1.5,34.3-2.1,2-.1,2.4-.7,2.6-2.6,1.2-16.3,2-32.7,3.8-48.9,1.3-11.4,3.8-22.7,5.9-34,.7-3.6,2-7,3.1-11-1.2.5-1.9.9-2.7,1.3-8.9,4.7-15.7,11.6-21.6,19.7-9.5,13-15.6,27.6-20.2,43l-2,7ZM315.7,147.4c0-.8,0-1.5,0-2.2-.7-19.2-2.2-38.4-5-57.5-1.6-10.6-3.4-21.1-7-31.2-.9-2.5-2.2-5-3.4-7.7-.6.7-.9.9-1.1,1.3-.9,1.8-1.8,3.5-2.5,5.3-4.5,12.1-6.7,24.8-8.1,37.5-1.7,15.1-2.8,30.4-4,45.6-.2,2.9,0,5.8,0,8.9h31.2ZM234.3,201.3c-1.6,15,15.2,66.2,24.1,73.5,5.4-4.3,11.3-7.8,17.6-10.5,1.1-.5,1-1.1.9-2-.7-5.5-1.5-11-2-16.6-1-13.4-1.9-26.8-2.7-40.1,0-1.6-.6-2.1-2.2-2.1-6.3-.2-12.7-.6-19-1-5.5-.3-11.1-.8-16.7-1.2ZM366.2,201.3c-.8,0-1.2,0-1.6,0-11.4.7-22.9,1.5-34.3,2.1-1.9.1-2.5.6-2.6,2.6-1,14.8-2.1,29.5-3.2,44.3-.2,2.8-.6,5.7-.9,8.6,1.1.2,1.8.3,2.6.5,6.4,1.4,12.8,2.8,19.1,4.4,3.3.8,2.6,1.1,4.2-1.9,0-.2.1-.4.2-.5,7.4-15.1,11.9-31.1,14.7-47.7.7-4,1.2-8,1.8-12.3ZM238.3,472.4c4.2-4.2,8.5-8.3,12.7-12.6,5.3-5.5,3.6-14.1-3.4-17.1-4.1-1.8-8.4-.8-12,2.7-7.5,7.5-15,15-22.5,22.5-6.3,6.3-12.6,12.6-18.9,18.9-2.9,2.9-4,6.5-2.8,10.5,1.2,3.9,3.3,7,7.9,7.5.9,0,2.2,1,2.7.7,2.1-1.3,4.6-1,6.6-3.1,7.7-8.2,15.8-16,23.8-23.9l5.7-5.9ZM290,488.6c-.7.1-1.9.2-3,.7-1.7.8-3.4,1.8-4.7,3.1-13.7,13.5-27.2,27.2-40.9,40.8-2.7,2.7-4.1,5.7-3.5,9.5.7,4.2,3.1,7.2,7.2,8.5,4.1,1.3,7.8.3,10.8-2.7,8.9-8.8,17.7-17.7,26.5-26.5,5.2-5.2,10.5-10.4,15.6-15.7,3.1-3.2,3.6-7.2,1.8-11.3-1.8-4-5.1-6-10-6.2ZM224.8,528.3c3.5-.1,6.1-1.5,8.4-3.8,7.8-7.9,15.7-15.7,23.6-23.6,5.9-5.9,11.8-11.7,17.6-17.6,2.9-2.9,3.8-6.5,2.7-10.5-1.1-3.9-3.8-6.4-7.8-7.3-4.3-1-7.7.7-10.8,3.8-10.5,10.6-21.1,21.1-31.6,31.7-3.2,3.2-6.6,6.4-9.6,9.8-3.1,3.4-3.6,7.4-1.7,11.5,1.8,4,5.2,5.9,9.3,6.1ZM230.7,429.9c0-5.1-2.5-8.9-6.4-10.6-4-1.7-8.5-.8-11.9,2.6-13.8,13.8-27.6,27.6-41.3,41.4-4.4,4.5-4.6,10.9-.4,15.1,4.1,4.2,10.6,4.2,15.1-.1,2.6-2.5,5.2-5.2,7.8-7.8,11.2-11.2,22.4-22.4,33.6-33.6,2.2-2.2,3.5-4.7,3.5-7ZM284.3,204.1c0,.7,0,1.2,0,1.8.7,17.6,2,35.1,4.2,52.6.2,1.5.7,1.6,2.1,1.4,6-.7,12.1-1.4,18.1-1.9,3-.2,3,0,3.3-3,1.2-13.4,2.4-26.7,3.4-40.1.3-3.6,0-7.1,0-10.8h-31.1ZM328.4,191.3c.3,0,.5.2.7.2,12.2-.8,24.4-1.6,36.6-2.3,1.4,0,1.5-1,1.5-2,0-7.6,0-15.2,0-22.8,0-1.6-.7-2.1-2.2-2.2-10.5-.7-21-1.4-31.5-2.1-1.7-.1-3.4,0-5.2,0v31.3ZM271.8,160c-.7,0-1.2-.1-1.7,0-11.8.8-23.6,1.6-35.5,2.3-1.5,0-1.7.8-1.7,2,0,7.6,0,15.2,0,22.8,0,1.6.5,2.2,2.1,2.3,11.6.7,23.3,1.5,34.9,2.3,1.6.1,2-.4,2-2,0-8.6,0-17.3,0-25.9,0-1.2,0-2.3,0-3.6ZM315.8,191.9c.1-.4.3-.7.3-.9,0-10.1,0-20.2,0-30.2,0-.4-.9-1.2-1.4-1.2-9.8,0-19.6,0-29.4,0-1.1,0-1.5.4-1.5,1.5,0,9.8,0,19.6,0,29.4,0,1,.3,1.5,1.3,1.5,10.2,0,20.4,0,30.8,0ZM426.8,176.1c-6.2-6.1-39.9-12.1-47.4-11.9v23.5c16.1-2.5,32.3-4.2,47.4-11.6ZM173.3,175.3c5.9,6,37.1,11.5,47.3,12.1v-23.7c-16.1,2.6-32.2,4.2-47.3,11.6ZM298.9,523.2c-6.4,6.4-12.7,12.7-19.5,19.4,2.9,1.1,5.7,2.4,8.7,3.1,7.5,1.8,13.7-1.5,16.4-8.8.7-1.8,1-3.8,1.3-5.7,0-.5,0-1.2-.4-1.6-2.2-2.2-4.4-4.4-6.5-6.4Z"/>
    </g>
  </g>
</svg>