<?xml version="1.0" encoding="UTF-8"?>
<svg xmlns="http://www.w3.org/2000/svg" version="1.1" viewBox="0 0 600 600">
  <!-- Generator: Adobe Illustrator 28.7.2, SVG Export Plug-In . SVG Version: 1.2.0 Build 154)  -->
  <g>
    <g id="Layer_1">
      <g>
        <path d="M188.1,428.5h-10c-24.7,0-44.9-20.1-44.9-44.9v-25.6c0-24.7,20.1-44.9,44.9-44.9h10c24.7,0,44.9,20.1,44.9,44.9v25.6c0,24.7-20.1,44.9-44.9,44.9ZM178.1,328.7c-16.1,0-29.3,13.1-29.3,29.3v25.6c0,16.1,13.1,29.3,29.3,29.3h10c16.1,0,29.3-13.1,29.3-29.3v-25.6c0-16.1-13.1-29.3-29.3-29.3h-10Z"/>
        <path d="M306.4,428.5h-10c-24.7,0-44.9-20.1-44.9-44.9v-25.6c0-24.7,20.1-44.9,44.9-44.9h10c24.7,0,44.9,20.1,44.9,44.9v25.6c0,24.7-20.1,44.9-44.9,44.9ZM296.4,328.7c-16.1,0-29.3,13.1-29.3,29.3v25.6c0,16.1,13.1,29.3,29.3,29.3h10c16.1,0,29.3-13.1,29.3-29.3v-25.6c0-16.1-13.1-29.3-29.3-29.3h-10Z"/>
        <path d="M424.7,428.5h-10c-24.7,0-44.9-20.1-44.9-44.9v-25.6c0-24.7,20.1-44.9,44.9-44.9h10c24.7,0,44.9,20.1,44.9,44.9v25.6c0,24.7-20.1,44.9-44.9,44.9ZM414.8,328.7c-16.1,0-29.3,13.1-29.3,29.3v25.6c0,16.1,13.1,29.3,29.3,29.3h10c16.1,0,29.3-13.1,29.3-29.3v-25.6c0-16.1-13.1-29.3-29.3-29.3h-10Z"/>
        <path d="M265.8,530.1c-4.3,0-7.8-3.5-7.8-7.8v-19.4c0-26-21.2-47.2-47.2-47.2h-55.3c-26,0-47.2,21.2-47.2,47.2v19.4c0,4.3-3.5,7.8-7.8,7.8s-7.8-3.5-7.8-7.8v-19.4c0-34.6,28.2-62.8,62.8-62.8h55.3c34.6,0,62.8,28.2,62.8,62.8v19.4c0,4.3-3.5,7.8-7.8,7.8Z"/>
        <path d="M383.9,530.1c-4.3,0-7.8-3.5-7.8-7.8v-19.4c0-26-21.2-47.2-47.2-47.2h-55.3c-4.3,0-7.8-3.5-7.8-7.8s3.5-7.8,7.8-7.8h55.3c34.6,0,62.8,28.2,62.8,62.8v19.4c0,4.3-3.5,7.8-7.8,7.8Z"/>
        <path d="M502,530.1c-4.3,0-7.8-3.5-7.8-7.8v-19.4c0-26-21.2-47.2-47.2-47.2h-55.3c-4.3,0-7.8-3.5-7.8-7.8s3.5-7.8,7.8-7.8h55.3c34.6,0,62.8,28.2,62.8,62.8v19.4c0,4.3-3.5,7.8-7.8,7.8Z"/>
        <g>
          <path d="M302,309l-39-38.7h-44.3l-37,37.1-38.4-37.1h-31.9c-2.4,0-4.8-.2-7.1-.7-2.3-.5-4.5-1.2-6.6-2.1-2.1-.9-4.1-2-6-3.3-1.9-1.3-3.6-2.7-5.2-4.3s-3.1-3.4-4.3-5.2c-1.3-1.9-2.4-3.9-3.3-6-.9-2.1-1.6-4.4-2.1-6.6-.5-2.3-.7-4.7-.7-7.1V105.2c0-2.4.2-4.8.7-7.1.5-2.3,1.2-4.5,2.1-6.6.9-2.1,2-4.1,3.3-6,1.3-1.9,2.7-3.6,4.3-5.2,1.6-1.6,3.4-3.1,5.2-4.3,1.9-1.3,3.9-2.4,6-3.3,2.1-.9,4.4-1.6,6.7-2.1,2.3-.5,4.7-.7,7.1-.7h377c2.4,0,4.8.2,7.1.7,2.3.5,4.5,1.2,6.6,2.1,2.1.9,4.1,2,6,3.3,1.9,1.3,3.6,2.7,5.2,4.3,1.6,1.6,3.1,3.4,4.3,5.2,1.3,1.9,2.4,3.9,3.3,6,.9,2.1,1.6,4.4,2.1,6.6.5,2.3.7,4.7.7,7.1v129.7c0,2.4-.2,4.8-.7,7.1-.5,2.3-1.2,4.5-2.1,6.6-.9,2.1-2,4.1-3.3,6-1.3,1.9-2.7,3.6-4.3,5.2-1.6,1.6-3.3,3-5.2,4.3-1.9,1.3-3.9,2.4-6,3.3-2.1.9-4.4,1.6-6.7,2.1-2.3.5-4.7.7-7.1.7h-31.1l-39.3,34.5-33.7-34.5h-49.6l-32.8,38.7ZM212.2,254.7h57.2l31.6,31.4,26.6-31.4h63.4l27.9,28.6,32.6-28.6h36.9c1.3,0,2.7-.1,4-.4,1.3-.3,2.5-.6,3.7-1.1,1.2-.5,2.3-1.1,3.4-1.8,1-.7,2-1.5,2.9-2.4.9-.9,1.7-1.9,2.4-2.9.7-1.1,1.3-2.2,1.8-3.4.5-1.2.9-2.4,1.1-3.7.3-1.3.4-2.6.4-4V105.2c0-1.3-.1-2.7-.4-4-.3-1.3-.6-2.5-1.1-3.7-.5-1.2-1.1-2.3-1.8-3.4-.7-1-1.5-2-2.4-2.9s-1.9-1.7-2.9-2.4c-1.1-.7-2.2-1.3-3.4-1.8-1.2-.5-2.4-.9-3.7-1.1-1.3-.3-2.6-.4-4-.4H111.5c-1.3,0-2.7.1-4,.4-1.3.3-2.5.6-3.7,1.1-1.2.5-2.3,1.1-3.3,1.8-1,.7-2,1.5-2.9,2.4-.9.9-1.7,1.9-2.4,2.9-.7,1.1-1.3,2.2-1.8,3.4-.5,1.2-.9,2.4-1.1,3.7-.3,1.3-.4,2.6-.4,4v129.7c0,1.3.1,2.7.4,4,.3,1.3.6,2.5,1.1,3.7.5,1.2,1.1,2.3,1.8,3.4.7,1,1.5,2,2.4,2.9s1.9,1.7,2.9,2.4c1,.7,2.2,1.3,3.4,1.8,1.2.5,2.4.9,3.7,1.1,1.3.3,2.6.4,4,.4h38.2l31.9,30.8,30.7-30.8Z"/>
          <g>
            <path d="M212.3,224l-35.5-25.8-35.5,25.8,13.5-41.7-35.5-25.8h43.8l13.5-41.7,13.5,41.7h43.8l-35.5,25.8,13.5,41.7ZM143.5,164.3l20.6,15-7.9,24.2,20.6-15,20.6,15-7.9-24.2,20.6-15h-25.5l-7.9-24.2-7.9,24.2h-25.5Z"/>
            <path d="M335.5,224l-35.5-25.8-35.5,25.8,13.5-41.7-35.5-25.8h43.8l13.5-41.7,13.5,41.7h43.8l-35.5,25.8,13.5,41.7ZM300,188.6l20.6,15-7.9-24.2,20.6-15h-25.5l-7.9-24.2-7.9,24.2h-25.5l20.6,15-7.9,24.2,20.6-15Z"/>
            <path d="M458.6,224l-35.5-25.8-35.5,25.8,13.5-41.7-35.5-25.8h43.8l13.5-41.7,13.5,41.7h43.8l-35.5,25.8,13.5,41.7ZM389.8,164.3l20.6,15-7.9,24.2,20.6-15,20.6,15-7.9-24.2,20.6-15h-25.5l-7.9-24.2-7.9,24.2h-25.5Z"/>
          </g>
        </g>
      </g>
    </g>
  </g>
</svg>